HIERARCHY
ROOT pelvis
{
  OFFSET 0 100 0
  CHANNELS 6 Xposition Yposition Zposition Zrotation Xrotation Yrotation
  JOINT pelvis_right_femur
  {
    OFFSET -10.78128 -3.44521 -0.5502486
    CHANNELS 3 Zrotation Xrotation Yrotation
    JOINT right_femur_tibia
    {
      OFFSET -0.8047443 -44.0398 -0.1307829
      CHANNELS 3 Zrotation Xrotation Yrotation
      JOINT right_tibia_foot
      {
        OFFSET 3.006224 -47.83518 -5
        CHANNELS 3 Zrotation Xrotation Yrotation
        End Site
        {
          OFFSET 0 -5 15
        }
      }
    }
  }
  JOINT pelvis_left_femur
  {
    OFFSET 10.78128 -3.44521 -0.5502486
    CHANNELS 3 Zrotation Xrotation Yrotation
    JOINT left_femur_tibia
    {
      OFFSET 0.8047443 -44.0398 -0.1307829
      CHANNELS 3 Zrotation Xrotation Yrotation
      JOINT left_tibia_foot
      {
        OFFSET -4.370144 -48.10324 -4.275266
        CHANNELS 3 Zrotation Xrotation Yrotation
        End Site
        {
          OFFSET 0 -5 15
        }
      }
    }
  }
  JOINT pelvis_spine1
  {
    OFFSET 0 6.468898 -3.129235
    CHANNELS 3 Zrotation Xrotation Yrotation
    JOINT spine1
    {
      OFFSET 0 23.15396 4.99043
      CHANNELS 3 Zrotation Xrotation Yrotation
      JOINT spine2
      {
        OFFSET 0 20.79997 -5.064912
        CHANNELS 3 Zrotation Xrotation Yrotation
        JOINT neck
        {
          OFFSET 0 14.38658 9.616178
          CHANNELS 3 Zrotation Xrotation Yrotation
          End Site
          {
            OFFSET 0 20 0
          }
        }
      }
      JOINT right_manubrium
      {
        OFFSET -5.722621 16.35077 3.967754
        CHANNELS 3 Zrotation Xrotation Yrotation
        JOINT right_clavicle
        {
          OFFSET -13.16364 1.694482 -4.693211
          CHANNELS 3 Zrotation Xrotation Yrotation
          JOINT right_humerus
          {
            OFFSET -28.5034 -0.3100689 -2.792744
            CHANNELS 3 Zrotation Xrotation Yrotation
            JOINT right_radius
            {
              OFFSET -25.15693 0.02248979 -1.271978
              CHANNELS 3 Zrotation Xrotation Yrotation
              End Site
              {
                OFFSET -15 0 0
              }
            }
          }
        }
      }
      JOINT left_manubrium
      {
        OFFSET 5.722621 16.35077 3.967754
        CHANNELS 3 Zrotation Xrotation Yrotation
        JOINT left_clavicle
        {
          OFFSET 13.16364 1.694482 -4.693211
          CHANNELS 3 Zrotation Xrotation Yrotation
          JOINT left_humerus
          {
            OFFSET 29.39168 -1.063119 -2.237045
            CHANNELS 3 Zrotation Xrotation Yrotation
            JOINT left_radius
            {
              OFFSET 24.59957 -0.9528479 0.9047498
              CHANNELS 3 Zrotation Xrotation Yrotation
              End Site
              {
                OFFSET 15 -0 -0
              }
            }
          }
        }
      }
    }
  }
}
MOTION
Frames: 21
Frame Time: 0.0416666666667
0 103.5113 0 1.846294 -1.306434 0.1741358 4.031304 -14.78477 9.748131 -0 39.08204 -0 -4.660906 -18.32159 -2.983153 -7.708831 9.524619 -21.70296 -0 6.777576 -0 20.8579 -8.529632 27.81055 -2.184061 -2.519143 5.348919 2.601737 9.418216 -7.326659 1.374646 20.90273 6.741375 3.527118 -25.95428 9.172631 5.565045 -19.47295 11.31886 84.51359 35.62656 -17.24683 -0 0 16.14423 -8.819238 9.817244 5.196143 6.904286 -20.89685 0.05026039 -93.82043 23.30015 22.02667 0 0 -14.72474 11.65067 15.65866 0.4811121
0.4877848 103.8176 1.536944 1.1047 0.02501017 0.2304785 5.405637 -17.90101 10.64634 -0 39.64024 -0 -4.596116 -17.87664 -2.753309 -7.548187 9.046171 -21.64886 -0 7.275048 -0 20.86385 -9.517059 28.09664 -1.97678 -2.556857 5.10158 2.739673 9.457165 -7.653916 1.409868 20.58938 7.007824 3.66363 -26.36739 9.501378 5.553909 -19.14544 11.2872 85.44437 35.42633 -18.6651 -0 0 15.39757 -8.565308 10.02358 4.761643 7.22228 -21.19425 0.0497329 -93.48772 23.03095 21.29669 0 0 -15.59483 12.12066 15.59016 -0.09924159
0.8663101 103.6956 3.766477 1.553767 -1.465537 0.3217023 4.264283 -17.19809 6.579846 -0 33.01651 -0 -6.236292 -12.43605 -1.733349 -7.45001 10.2916 -19.51287 -0 8.920415 -0 18.53903 -11.31998 26.63927 -2.063167 -2.435222 5.15422 2.706205 9.49886 -7.5853 1.351033 20.66655 6.882546 3.614749 -26.06094 9.193099 5.53721 -19.17762 11.33164 85.1237 35.31904 -18.18209 -0 0 15.46519 -8.987005 9.930821 5.199478 7.00956 -21.08766 -0.0797402 -93.29809 23.0628 21.26888 0 0 -15.53916 11.51215 15.24797 0.6091571
1.179669 103.5231 6.380739 1.276251 -1.307559 0.3283246 4.46671 -19.16444 5.029191 -0 29.65392 -0 -7.020587 -9.312285 -1.098826 -7.256587 10.77784 -18.36033 -0 10.00014 -0 16.77953 -13.23679 25.80294 -2.067331 -2.387118 5.101565 2.739082 9.510738 -7.631171 1.331471 20.64451 6.885263 3.618621 -26.0307 9.133706 5.540566 -19.09818 11.3427 85.18718 35.22485 -18.30263 -0 0 15.2972 -9.084946 9.910326 5.286877 6.967205 -21.08807 -0.1552338 -93.15149 23.05629 21.0976 0 0 -15.6921 11.31225 15.0974 0.8337206
1.452269 103.2111 9.43018 1.259906 -1.550557 0.3293172 4.356007 -20.0258 3.119583 -0 25.81892 -0 -8.013359 -6.103363 -0.2775056 -7.17313 10.99293 -16.85095 -0 11.50567 -0 16.41412 -13.85387 24.87708 -2.081088 -2.292067 5.000162 2.802445 9.5308 -7.714497 1.292656 20.61029 6.884859 3.622063 -25.96306 9.01224 5.548864 -18.94585 11.36452 85.29305 35.04582 -18.51203 -0 0 14.97934 -9.279247 9.866509 5.465255 6.875437 -21.08056 -0.3056391 -92.87178 23.05378 20.77562 0 0 -15.97218 10.90898 14.80642 1.287976
1.68681 102.8501 12.8827 1.013531 -1.298013 0.3030128 4.590243 -21.78592 1.762146 -0 22.46667 -0 -8.857779 -3.265068 0.4747269 -7.009281 11.09904 -15.52085 -0 13.03706 -0 15.84463 -14.69833 23.91437 -2.091806 -2.21235 4.889324 2.872862 9.538924 -7.800932 1.260714 20.57792 6.894234 3.626265 -25.93058 8.9264 5.564155 -18.7893 11.38048 85.42085 34.88739 -18.76032 -0 0 14.6591 -9.411358 9.825315 5.59106 6.798966 -21.07518 -0.4446949 -92.62793 23.06592 20.473 0 0 -16.23525 10.56719 14.57031 1.670577
1.890804 102.4222 16.7667 0.8773958 -1.305411 0.2707867 4.714942 -22.75935 0.2310767 -0 19.02026 -0 -9.878651 -0.4295259 1.356229 -6.866503 11.02394 -13.99746 -0 15.06321 -0 15.94499 -14.74081 22.90176 -2.110363 -2.12256 4.774484 2.945325 9.546282 -7.884995 1.224468 20.55369 6.895014 3.625216 -25.87719 8.820447 5.580872 -18.62643 11.39924 85.53089 34.72083 -18.98501 -0 0 14.33026 -9.570996 9.778287 5.746981 6.70295 -21.05887 -0.5991603 -92.36669 23.08774 20.15983 0 0 -16.49807 10.17283 14.31019 2.113639
2.064977 101.9937 21.07944 0.6491864 -1.184133 0.2211795 4.97582 -23.7478 -1.093576 -0 15.82392 -0 -10.93737 2.187135 2.244677 -6.652881 10.82684 -12.52367 -0 17.4351 -0 15.91018 -14.6179 21.74441 -2.136771 -2.033898 4.67562 3.00732 9.551508 -7.950098 1.188341 20.54529 6.883622 3.617329 -25.80374 8.70428 5.596313 -18.48461 11.41878 85.59503 34.57268 -19.13434 -0 0 14.0491 -9.742795 9.730159 5.91893 6.595936 -21.02921 -0.7474977 -92.12818 23.11977 19.88992 0 0 -16.71197 9.772529 14.06109 2.565808
2.211446 101.5906 25.81969 0.4537086 -1.304123 0.1406106 5.239804 -23.93074 -2.471848 -0 12.80227 -0 -12.17053 4.620495 3.194757 -6.392253 10.39484 -10.95545 -0 20.49609 -0 16.10357 -13.8578 20.48318 -2.173589 -1.941772 4.604783 3.050406 9.559145 -7.987203 1.150432 20.55679 6.853271 3.600928 -25.69051 8.563222 5.606092 -18.37545 11.44119 85.58943 34.44376 -19.16567 -0 0 13.83782 -9.955725 9.682064 6.13012 6.471057 -20.98179 -0.8886477 -91.90953 23.15739 19.67476 0 0 -16.86437 9.348904 13.80722 3.049162
2.330297 101.2887 30.95225 0.2086164 -1.516107 0.0010221 5.615579 -23.57385 -3.680876 -0 10.20748 -0 -13.48029 6.656302 4.094301 -6.03656 9.701308 -9.444606 -0 24.20606 -0 16.15499 -12.70679 19.09126 -2.219259 -1.848434 4.579063 3.062806 9.573941 -7.985761 1.111973 20.58935 6.801106 3.576737 -25.52742 8.394853 5.604568 -18.31751 11.46676 85.49497 34.3424 -19.04004 -0 0 13.73147 -10.22416 9.640546 6.386484 6.332838 -20.91752 -1.010699 -91.72199 23.19026 19.53822 0 0 -16.93631 8.919302 13.54987 3.546312
2.422588 101.1427 36.41335 -0.03531312 -2.020897 -0.2378853 6.06884 -22.30282 -4.779216 -0 8.080482 -0 -14.87737 8.219787 4.888491 -5.579555 8.614279 -7.962783 -0 28.72317 -0 16.21493 -11.01951 17.66716 -2.272703 -1.75428 4.613074 3.034347 9.600633 -7.936823 1.073653 20.6433 6.724572 3.545722 -25.3036 8.195148 5.586777 -18.32574 11.49621 85.29411 34.27148 -18.72287 -0 0 13.75829 -10.56617 9.61075 6.697219 6.183566 -20.83617 -1.105497 -91.57171 23.20842 19.49812 0 0 -16.91425 8.492046 13.28482 4.049881
2.489561 101.2163 42.09863 -0.2880728 -2.770395 -0.6154663 6.604656 -20.24051 -5.644312 -0 6.52158 -0 -16.24299 9.171645 5.45771 -5.007697 7.064332 -6.620761 -0 33.83355 -0 16.15971 -8.992395 16.30088 -2.330472 -1.661508 4.721952 2.954126 9.645242 -7.832636 1.037225 20.7154 6.623008 3.510225 -25.01069 7.963666 5.54707 -18.41573 11.53007 84.97366 34.22996 -18.18532 -0 0 13.94768 -10.99863 9.601012 7.067795 6.029866 -20.74035 -1.163201 -91.46449 23.19628 19.57019 0 0 -16.79 8.083951 13.00903 4.541872
2.535817 101.5276 47.86962 -0.5015538 -3.842032 -1.158012 7.15158 -17.30431 -6.287496 -0 5.455173 -0 -17.49127 9.467974 5.718071 -4.324476 4.946113 -5.451469 -0 39.17348 -0 16.07025 -6.745903 15.14823 -2.389783 -1.572688 4.915313 2.815155 9.711449 -7.667858 1.004755 20.80199 6.496338 3.471936 -24.64448 7.702303 5.482306 -18.59829 11.56895 84.5236 34.21073 -17.40766 -0 0 14.32201 -11.53221 9.617086 7.501521 5.876246 -20.63001 -1.178407 -91.40576 23.14262 19.76689 0 0 -16.55851 7.704793 12.72192 5.010229
2.57003 102.0483 53.56869 -0.6492819 -5.148824 -1.854598 7.630088 -13.66999 -6.67841 -0 4.760521 -0 -18.49178 9.06591 5.613441 -3.542398 2.249998 -4.526772 -0 43.94663 -0 15.92118 -4.55278 14.31711 -2.447163 -1.490999 5.197405 2.613813 9.801808 -7.440441 0.9787399 20.8972 6.345309 3.432078 -24.20424 7.415198 5.390818 -18.8798 11.61375 83.94021 34.19861 -16.38202 -0 0 14.8968 -12.17338 9.66463 8.000103 5.726718 -20.50432 -1.149806 -91.39794 23.03727 20.09419 0 0 -16.22233 7.358702 12.42346 5.446636
2.606747 102.678 59.04824 -0.7080193 -6.595931 -2.649498 7.961373 -9.482684 -6.833284 -0 4.280875 -0 -19.15108 7.921136 5.128486 -2.665691 -0.952281 -3.867898 -0 47.13645 -0 15.72112 -2.625802 13.86341 -2.500406 -1.419534 5.563584 2.352719 9.914989 -7.152165 0.9616209 20.99577 6.17085 3.390109 -23.69482 7.108605 5.27439 -19.25909 11.6655 83.22628 34.17245 -15.11514 -0 0 15.67561 -12.91918 9.745305 8.562921 5.581151 -20.35847 -1.082736 -91.44232 22.87871 20.55246 0 0 -15.78823 7.037137 12.11702 5.854317
2.663974 103.2689 64.20764 -0.6943123 -7.989578 -3.45315 8.104489 -5.030474 -6.745749 -0 3.973308 -0 -19.41973 5.960664 4.280815 -1.698604 -4.401451 -3.483911 -0 47.70622 -0 15.43846 -1.112826 13.74253 -2.547765 -1.36078 6.001671 2.039598 10.04705 -6.808871 0.9555135 21.09241 5.974524 3.344347 -23.1254 6.790135 5.137094 -19.72791 11.72535 82.39374 34.10712 -13.62988 -0 0 16.64944 -13.76009 9.858371 9.187421 5.436812 -20.186 -0.9876641 -91.53695 22.67124 21.13416 0 0 -15.2693 6.722254 11.80686 6.245182
2.758917 103.6602 69.01805 -0.6507477 -9.163846 -4.174664 8.046282 -0.5799665 -6.392663 -0 3.97556 -0 -19.32435 3.107856 3.084179 -0.6538435 -7.688602 -3.38056 -0 45.01517 -0 15.04185 -0.005937249 13.86555 -2.588915 -1.315735 6.491753 1.687806 10.19068 -6.420558 0.9616466 21.18348 5.759086 3.292322 -22.51058 6.468612 4.985847 -20.26954 11.79407 81.46469 33.97943 -11.96719 -0 0 17.79253 -14.67802 9.998817 9.867289 5.288023 -19.97917 -0.8792778 -91.67729 22.42729 21.82367 0 0 -14.68273 6.38912 11.49883 6.639055
2.902208 103.733 73.52445 -0.6273402 -10.02118 -4.753096 7.769505 3.632538 -5.7283 -0 4.580822 -0 -18.97114 -0.601883 1.563785 0.400485 -10.31327 -3.613463 -0 39.1372 -0 14.50363 0.8176369 14.15934 -2.624461 -1.283115 7.008107 1.315061 10.33661 -6.001746 0.9799077 21.26653 5.52984 3.232262 -21.87006 6.153731 4.829421 -20.85848 11.8715 80.47351 33.77332 -10.18855 -0 0 19.05946 -15.64818 10.15823 10.59073 5.128694 -19.73242 -0.7739365 -91.8543 22.1642 22.59437 0 0 -14.05158 6.013175 11.19775 7.057596
3.096006 103.4439 77.82237 -0.6491116 -10.58901 -5.169244 7.22368 7.514304 -4.708701 -0 6.105179 -0 -18.51899 -4.936565 -0.224765 1.329643 -11.86656 -4.304967 -0 30.8952 -0 13.78873 1.519914 14.62323 -2.656286 -1.258543 7.520131 0.943116 10.47405 -5.571928 1.008298 21.3408 5.295986 3.164343 -21.22955 5.856037 4.678252 -21.45931 11.95577 79.46714 33.48653 -8.37813 -0 0 20.38051 -16.63785 10.32403 11.33738 4.954006 -19.44503 -0.6876249 -92.05356 21.90372 23.40642 0 0 -13.40498 5.57682 10.90649 7.519399
3.337356 102.8366 82.02737 -0.7005306 -10.97899 -5.439116 6.335956 11.08756 -3.337518 -0 8.736516 -0 -18.14033 -9.411013 -2.144827 1.962249 -12.16273 -5.594251 -0 21.62091 -0 12.86257 2.205797 15.31429 -2.686914 -1.234554 7.994953 0.5959452 10.59236 -5.155357 1.042754 21.4066 5.071385 3.091877 -20.61991 5.586499 4.542989 -22.02794 12.04274 78.50333 33.13446 -6.64098 -0 0 21.66237 -17.60759 10.48096 12.07657 4.763214 -19.12445 -0.6333388 -92.25454 21.66882 24.20581 0 0 -12.77935 5.076909 10.62445 8.033425
3.624284 102.0266 86.24849 -0.7343514 -11.3095 -5.597825 5.0549 14.42051 -1.696171 -0 12.46879 -0 -17.96721 -13.36542 -3.963793 2.169488 -11.29404 -7.541299 -0 12.72364 -0 11.69574 2.873871 16.28941 -2.718807 -1.201801 8.40075 0.2972536 10.68274 -4.779409 1.077482 21.46488 4.873633 3.021341 -20.07486 5.3557 4.43284 -22.51588 12.12594 77.64486 32.75058 -5.094302 -0 0 22.7962 -18.51299 10.6134 12.76805 4.561343 -18.78796 -0.6190068 -92.43203 21.48092 24.92806 0 0 -12.21671 4.529018 10.34838 8.594297
